grf
version=1
nRows=15
nColumns=37
inDegrees=no
endheader
time	ground_force_1_vx	ground_force_1_vy	ground_force_1_vz	ground_force_1_px	ground_force_1_py	ground_force_1_pz	ground_moment_1_mx	ground_moment_1_my	ground_moment_1_mz	ground_force_2_vx	ground_force_2_vy	ground_force_2_vz	ground_force_2_px	ground_force_2_py	ground_force_2_pz	ground_moment_2_mx	ground_moment_2_my	ground_moment_2_mz	ground_force_3_vx	ground_force_3_vy	ground_force_3_vz	ground_force_3_px	ground_force_3_py	ground_force_3_pz	ground_moment_3_mx	ground_moment_3_my	ground_moment_3_mz	ground_force_4_vx	ground_force_4_vy	ground_force_4_vz	ground_force_4_px	ground_force_4_py	ground_force_4_pz	ground_moment_4_mx	ground_moment_4_my	ground_moment_4_mz
      0.00000000	      0.00000000	     -0.00000000	      0.00000000	      0.00000000	      0.00000000	      0.00000000	      0.00000000	      0.00000000	      0.00000000	     -8.65341949	     17.15306664	   -550.16766357	   -335.84519501	  -1081.58948583	      0.00000000	     -0.00000000	      0.00000000	   1220.85240318	      9.33212588	    -30.21472631	   -264.34219360	   -375.99414719	   -813.38775768	      0.00000000	      0.00000000	      0.00000000	    907.50058449	      0.00000000	     -0.00000000	      0.00000000	      0.00000000	      0.00000000	      0.00000000	      0.00000000	      0.00000000	      0.00000000
      0.01000000	      0.00000000	     -0.00000000	      0.00000000	      0.00000000	      0.00000000	      0.00000000	      0.00000000	      0.00000000	      0.00000000	     -8.38578796	     17.14377403	   -555.78344727	   -335.70591731	  -1081.05914986	      0.00000000	      0.00000000	      0.00000000	   1146.51578582	      9.28361447	    -29.19474492	   -255.68400574	   -376.23135800	   -813.10624501	      0.00000000	      0.00000000	      0.00000000	    810.12667599	      0.00000000	     -0.00000000	      0.00000000	      0.00000000	      0.00000000	      0.00000000	      0.00000000	      0.00000000	      0.00000000
      0.02000000	      0.00000000	     -0.00000000	      0.00000000	      0.00000000	      0.00000000	      0.00000000	      0.00000000	      0.00000000	      0.00000000	     -7.50303411	     17.47890091	   -561.63012695	   -336.09709981	  -1081.61691496	      0.00000000	      0.00000000	      0.00000000	   1289.90730997	      9.00865018	    -28.67385371	   -247.98350525	   -375.93428143	   -813.02426451	      0.00000000	      0.00000000	      0.00000000	    699.18742876	      0.00000000	     -0.00000000	      0.00000000	      0.00000000	      0.00000000	      0.00000000	      0.00000000	      0.00000000	      0.00000000
      0.03000000	      0.00000000	     -0.00000000	      0.00000000	      0.00000000	      0.00000000	      0.00000000	      0.00000000	      0.00000000	      0.00000000	     -7.28490210	     17.90758896	   -569.28106689	   -336.16334464	  -1082.35993445	      0.00000000	      0.00000000	      0.00000000	   1348.67914687	      8.21032567	    -27.87005306	   -242.03417969	   -373.65409489	   -811.81646609	      0.00000000	      0.00000000	      0.00000000	    723.03609448	      0.00000000	     -0.00000000	      0.00000000	      0.00000000	      0.00000000	      0.00000000	      0.00000000	      0.00000000	      0.00000000
      0.04000000	      0.00000000	     -0.00000000	      0.00000000	      0.00000000	      0.00000000	      0.00000000	      0.00000000	      0.00000000	      0.00000000	     -6.54123211	     17.94404984	   -573.01025391	   -336.64469355	  -1082.27286083	      0.00000000	      0.00000000	      0.00000000	   1528.38311398	      7.36299278	    -27.09370868	   -234.58322144	   -372.24186788	   -812.46810619	      0.00000000	      0.00000000	      0.00000000	    840.56223081	      0.00000000	     -0.00000000	      0.00000000	      0.00000000	      0.00000000	      0.00000000	      0.00000000	      0.00000000	      0.00000000
      0.05000000	      0.00000000	     -0.00000000	      0.00000000	      0.00000000	      0.00000000	      0.00000000	      0.00000000	      0.00000000	      0.00000000	     -6.59183216	     17.62834549	   -582.11773682	   -336.54741153	  -1082.86268945	      0.00000000	      0.00000000	      0.00000000	   1440.21274598	      7.08745152	    -26.51524224	   -228.80540466	   -372.27221266	   -811.91233628	      0.00000000	      0.00000000	      0.00000000	    708.16084152	      0.00000000	     -0.00000000	      0.00000000	      0.00000000	      0.00000000	      0.00000000	      0.00000000	      0.00000000	      0.00000000
      0.06000000	      0.00000000	     -0.00000000	      0.00000000	      0.00000000	      0.00000000	      0.00000000	      0.00000000	      0.00000000	      0.00000000	     -6.18519974	     17.18230820	   -589.18286133	   -336.83587861	  -1081.56725396	      0.00000000	      0.00000000	      0.00000000	   1409.01649466	      6.60417428	    -25.69209919	   -221.86167908	   -371.42741434	   -813.68756825	      0.00000000	     -0.00000000	     -0.00000000	    724.67360543	      0.00000000	     -0.00000000	      0.00000000	      0.00000000	      0.00000000	      0.00000000	      0.00000000	      0.00000000	      0.00000000
      0.07000000	      0.00000000	     -0.00000000	      0.00000000	      0.00000000	      0.00000000	      0.00000000	      0.00000000	      0.00000000	      0.00000000	     -5.51103354	     17.09303665	   -600.36627197	   -336.74437592	  -1081.32485845	      0.00000000	      0.00000000	      0.00000000	   1347.01361017	      6.17990369	    -25.22065598	   -214.99797058	   -370.24904597	   -812.36217152	      0.00000000	      0.00000000	      0.00000000	    677.05077221	      0.00000000	     -0.00000000	      0.00000000	      0.00000000	      0.00000000	      0.00000000	      0.00000000	      0.00000000	      0.00000000
      0.08000000	      0.00000000	     -0.00000000	      0.00000000	      0.00000000	      0.00000000	      0.00000000	      0.00000000	      0.00000000	      0.00000000	     -5.93656921	     17.34092522	   -613.66632080	   -336.84529210	  -1081.12079100	      0.00000000	      0.00000000	      0.00000000	   1495.70868920	      6.20975286	    -23.84685571	   -206.73629761	   -369.58851737	   -816.15772541	      0.00000000	      0.00000000	      0.00000000	    560.88231789	      0.00000000	     -0.00000000	      0.00000000	      0.00000000	      0.00000000	      0.00000000	      0.00000000	      0.00000000	      0.00000000
      0.09000000	      0.00000000	     -0.00000000	      0.00000000	      0.00000000	      0.00000000	      0.00000000	      0.00000000	      0.00000000	      0.00000000	     -6.38369131	     17.76610947	   -625.75347900	   -336.28479377	  -1081.82176224	      0.00000000	      0.00000000	      0.00000000	   1431.25270784	      6.10153620	    -22.70856911	   -198.97875977	   -368.11710413	   -812.87438808	      0.00000000	      0.00000000	      0.00000000	    624.59269902	      0.00000000	     -0.00000000	      0.00000000	      0.00000000	      0.00000000	      0.00000000	      0.00000000	      0.00000000	      0.00000000
      0.10000000	      0.00000000	     -0.00000000	      0.00000000	      0.00000000	      0.00000000	      0.00000000	      0.00000000	      0.00000000	      0.00000000	     -6.89820814	     18.02513123	   -634.42602539	   -335.92646374	  -1081.50926246	      0.00000000	      0.00000000	      0.00000000	   1374.82602355	      6.06159119	    -21.34471756	   -190.75559998	   -368.09759324	   -812.44294957	      0.00000000	      0.00000000	      0.00000000	    593.70703028	      0.00000000	     -0.00000000	      0.00000000	      0.00000000	      0.00000000	      0.00000000	      0.00000000	      0.00000000	      0.00000000
      0.11000000	      0.00000000	     -0.00000000	      0.00000000	      0.00000000	      0.00000000	      0.00000000	      0.00000000	      0.00000000	      0.00000000	     -7.57234335	     18.46820641	   -642.15325928	   -335.83115622	  -1081.31194657	      0.00000000	      0.00000000	      0.00000000	   1138.38354551	      6.03233162	    -20.03027206	   -181.44453430	   -366.97982924	   -813.17787040	      0.00000000	      0.00000000	      0.00000000	    590.07035178	      0.00000000	     -0.00000000	      0.00000000	      0.00000000	      0.00000000	      0.00000000	      0.00000000	      0.00000000	      0.00000000
      0.12000000	      0.00000000	     -0.00000000	      0.00000000	      0.00000000	      0.00000000	      0.00000000	      0.00000000	      0.00000000	      0.00000000	     -7.27599382	     18.27173233	   -650.47290039	   -335.72996359	  -1081.52514003	      0.00000000	      0.00000000	      0.00000000	   1311.34915617	      6.70282914	    -18.89055311	   -171.70126343	   -367.38001657	   -813.73446363	      0.00000000	      0.00000000	      0.00000000	    342.68067256	      0.00000000	     -0.00000000	      0.00000000	      0.00000000	      0.00000000	      0.00000000	      0.00000000	      0.00000000	      0.00000000
      0.13000000	      0.00000000	     -0.00000000	      0.00000000	      0.00000000	      0.00000000	      0.00000000	      0.00000000	      0.00000000	      0.00000000	     -7.08683586	     18.30011368	   -658.59509277	   -335.86657575	  -1082.20999049	      0.00000000	     -0.00000000	      0.00000000	   1290.02005518	      7.12823096	    -17.42791810	   -161.65719604	   -365.88027059	   -815.78069240	      0.00000000	     -0.00000000	      0.00000000	    167.76409173	      0.00000000	     -0.00000000	      0.00000000	      0.00000000	      0.00000000	      0.00000000	      0.00000000	      0.00000000	      0.00000000
      0.14000000	      0.00000000	     -0.00000000	      0.00000000	      0.00000000	      0.00000000	      0.00000000	      0.00000000	      0.00000000	      0.00000000	     -6.74086618	     17.71972275	   -669.27600098	   -335.56855708	  -1082.33498495	      0.00000000	      0.00000000	     -0.00000000	   1074.11799455	      7.14651727	    -16.41006151	   -152.77468872	   -366.71842563	   -814.74042293	      0.00000000	      0.00000000	      0.00000000	    198.48593398	      0.00000000	     -0.00000000	      0.00000000	      0.00000000	      0.00000000	      0.00000000	      0.00000000	      0.00000000	      0.00000000
